<svg width="1297" height="1134" viewBox="0 0 1297 1134" fill="none" xmlns="http://www.w3.org/2000/svg">
<path fill-rule="evenodd" clip-rule="evenodd" d="M588.195 76.7363C729.374 62.6451 884.679 -21.9421 997.444 64.1106C1114.17 153.184 1111.77 326.393 1107.6 473.104C1103.58 614.614 1073.17 757.597 974.825 859.493C874.897 963.033 732.05 1006.23 588.195 1011.29C438.294 1016.55 278.715 994.378 173.398 887.643C68.5873 781.421 41.3498 621.444 57.1632 473.104C71.4105 339.454 145.516 218.815 253.27 138.387C347.821 67.8135 470.768 88.4567 588.195 76.7363Z" fill="#EF6F6F" fill-opacity="0.3"/>
<path fill-rule="evenodd" clip-rule="evenodd" d="M710.99 0.0876719C848.262 4.47636 906.698 169.749 1006.01 264.54C1109.82 363.622 1291.54 415.967 1296.88 559.308C1302.23 703.161 1133.09 777.534 1028.8 876.846C928.813 972.051 846.409 1090.05 710.99 1117.19C546.508 1150.15 365.166 1140.31 233.711 1036.18C90.2017 922.501 -30.1536 738.544 6.71997 559.308C41.6623 389.459 260.6 352.936 396.467 245.052C504.653 159.147 572.87 -4.32809 710.99 0.0876719Z" fill="#EC4A4A"/>
</svg>
