<svg width="32" height="32" viewBox="0 0 32 32" fill="none" xmlns="http://www.w3.org/2000/svg">
<path d="M29.1067 0.640015H25.0972C23.8601 0.640015 22.8571 1.62286 22.8571 2.83534V6.76462C22.8571 7.9771 23.8601 8.96002 25.0972 8.96002H29.1067C30.3439 8.96002 31.3469 7.9771 31.3469 6.76462V2.83534C31.3469 1.62286 30.3439 0.640015 29.1067 0.640015Z" fill="#414042"/>
<path d="M13.4053 9.19419H16.9261C18.383 9.27534 19.769 9.83784 20.8577 10.79L20.9898 10.9338C21.9664 11.9977 22.5412 13.3577 22.6181 14.7868V18.2229C22.6181 18.8215 22.8608 19.3956 23.2927 19.8189C23.7247 20.2422 24.3105 20.48 24.9214 20.48H29.0437C29.6545 20.48 30.2404 20.2422 30.6723 19.8189C31.1043 19.3956 31.3469 18.8215 31.3469 18.2229V14.183C31.3469 13.5843 31.1043 13.0103 30.6723 12.587C30.2404 12.1637 29.6545 11.9258 29.0437 11.9258H25.5375C24.0793 11.8504 22.6915 11.2871 21.6059 10.33L21.4592 10.2006C20.4856 9.1348 19.9113 7.77595 19.8308 6.3476V2.89717C19.8308 2.29857 19.5882 1.72443 19.1563 1.30114C18.7243 0.877839 18.1385 0.640015 17.5276 0.640015H13.4053C12.7944 0.640015 12.2086 0.877839 11.7767 1.30114C11.3447 1.72443 11.1021 2.29857 11.1021 2.89717V6.9371C11.1021 7.53569 11.3447 8.10977 11.7767 8.53307C12.2086 8.95637 12.7944 9.19419 13.4053 9.19419Z" fill="#414042"/>
<path d="M29.7039 23.3388H26.2162C24.7643 23.2465 23.3887 22.6562 22.3215 21.6676L21.9291 21.2753C20.9617 20.1998 20.3923 18.8251 20.3161 17.3805V13.8928C20.3122 13.2889 20.0707 12.7108 19.6436 12.2837C19.2165 11.8566 18.6384 11.615 18.0345 11.6113H14.5467C13.1069 11.5507 11.7317 10.9965 10.6521 10.0418L10.2598 9.64941C9.29228 8.57402 8.72294 7.19929 8.64666 5.75475V2.2816C8.64666 1.67648 8.40627 1.09613 7.97845 0.668225C7.55056 0.240385 6.97025 0 6.36513 0H2.28153C1.67647 0 1.0961 0.240385 0.668278 0.668225C0.240392 1.09613 0 1.67648 0 2.2816V6.36512C0 6.97024 0.240392 7.55059 0.668278 7.97843C1.0961 8.40634 1.67647 8.64672 2.28153 8.64672H5.75477C7.22135 8.71379 8.61891 9.28922 9.70756 10.2743L10.0999 10.6667C11.0644 11.744 11.6332 13.1176 11.713 14.5613V18.0491C11.7168 18.653 11.9584 19.2311 12.3854 19.6581C12.8125 20.0852 13.3906 20.3268 13.9945 20.3306H17.4823C18.9108 20.42 20.2675 20.9883 21.3334 21.9437L21.7257 22.3361C22.6902 23.4134 23.259 24.787 23.3388 26.2307V29.7185C23.3426 30.3224 23.5842 30.9005 24.0112 31.3276C24.4383 31.7546 25.0164 31.9962 25.6203 32H29.7184C30.3224 31.9962 30.9005 31.7546 31.3275 31.3276C31.7546 30.9005 31.9962 30.3224 32 29.7185V25.6204C31.9961 25.014 31.7526 24.4336 31.3224 24.0061C30.8922 23.5787 30.3103 23.3388 29.7039 23.3388Z" fill="#414042"/>
<path d="M6.73038 23.04H2.41247C1.0801 23.04 0 24.0229 0 25.2354V29.1647C0 30.3772 1.0801 31.36 2.41247 31.36H6.73038C8.06276 31.36 9.14286 30.3772 9.14286 29.1647V25.2354C9.14286 24.0229 8.06276 23.04 6.73038 23.04Z" fill="#414042"/>
<path d="M17.9417 22.8057H14.4355C12.9772 22.7303 11.5895 22.1671 10.5038 21.2099L10.3572 21.0805C9.37737 20.0072 8.80268 18.6371 8.72875 17.1988V13.7484C8.7215 13.167 8.48562 12.6108 8.0702 12.1956C7.65479 11.7805 7.09192 11.5385 6.49887 11.52H2.30322C1.69234 11.52 1.10655 11.7578 0.67461 12.1811C0.242676 12.6044 0 13.1785 0 13.7771V17.817C0 18.4156 0.242676 18.9897 0.67461 19.4131C1.10655 19.8364 1.69234 20.0741 2.30322 20.0741H5.82407C7.28098 20.1553 8.66691 20.7178 9.75569 21.67L9.88774 21.8137C10.8644 22.8777 11.4392 24.2377 11.5161 25.6667V29.1027C11.5161 29.4004 11.5762 29.6951 11.6928 29.9698C11.8095 30.2446 11.9805 30.4941 12.1959 30.7039C12.4113 30.9137 12.667 31.0796 12.9481 31.1922C13.2293 31.3048 13.5303 31.3618 13.834 31.3599H17.9417C18.5525 31.3599 19.1384 31.1221 19.5703 30.6988C20.0022 30.2755 20.2449 29.7014 20.2449 29.1027V25.0629C20.2449 24.4643 20.0022 23.8901 19.5703 23.4668C19.1384 23.0435 18.5525 22.8057 17.9417 22.8057Z" fill="#414042"/>
</svg>
